<?xml version="1.0" encoding="iso-8859-1"?>
<!-- Generator: Adobe Illustrator 19.0.0, SVG Export Plug-In . SVG Version: 6.00 Build 0)  -->
<svg version="1.1" id="Layer_1" xmlns="http://www.w3.org/2000/svg" xmlns:xlink="http://www.w3.org/1999/xlink" x="0px" y="0px"
	 viewBox="0 0 511.999 511.999" style="enable-background:new 0 0 511.999 511.999;" xml:space="preserve">
<rect x="119.092" y="201.955" style="fill:#7F56C5;" width="273.817" height="212.459"/>
<circle style="fill:#6CC04A;" cx="371.107" cy="257.94" r="33.387"/>
<circle style="opacity:0.1;enable-background:new    ;" cx="371.107" cy="257.94" r="33.387"/>
<circle style="fill:#6CC04A;" cx="140.884" cy="257.94" r="33.386"/>
<circle style="opacity:0.1;enable-background:new    ;" cx="140.884" cy="257.94" r="33.386"/>
<path style="fill:#333E48;" d="M88.534,450.372v53.679h334.934v-53.679h-0.002c0-28.263-22.909-51.171-51.17-51.171H139.703
	C111.443,399.2,88.534,422.109,88.534,450.372z"/>
<path style="opacity:0.2;enable-background:new    ;" d="M152.836,461.633c-4.391,0-7.949,3.558-7.949,7.949v34.468h15.899v-34.468
	C160.786,465.191,157.226,461.633,152.836,461.633z M359.163,461.633c-4.391,0-7.949,3.558-7.949,7.949v34.468h15.899v-34.468
	C367.112,465.191,363.553,461.633,359.163,461.633z"/>
<path style="fill:#6CC04A;" d="M207.29,399.2v-52.523h97.417V399.2c0,26.902-21.807,48.708-48.708,48.708
	C229.1,447.908,207.29,426.102,207.29,399.2z"/>
<path style="opacity:0.1;enable-background:new    ;" d="M207.29,399.2v-52.523h97.417V399.2c0,26.902-21.807,48.708-48.708,48.708
	C229.1,447.908,207.29,426.102,207.29,399.2z"/>
<path style="fill:#6CC04A;" d="M140.884,229.403c0-63.573,51.537-115.111,115.114-115.111c63.574,0,115.113,51.538,115.113,115.111
	v57.078c0,63.577-51.538,115.115-115.113,115.115c-63.576,0-115.114-51.538-115.114-115.115L140.884,229.403L140.884,229.403z"/>
<path style="opacity:0.3;enable-background:new    ;" d="M194.669,300.466c-7.22,0-7.858,4.24-7.666,6.323
	c3.195,35.298,32.867,62.958,68.995,62.958c36.129,0,65.8-27.66,68.996-62.958c0.189-2.084-0.449-6.323-7.668-6.323H194.669z"/>
<path style="fill:#F9E2A9;" d="M285.91,337.962c-7.189,0-13.018,5.828-13.018,13.017v16.683c9.64-2.417,18.472-6.858,26.035-12.838
	v-3.845C298.927,343.79,293.099,337.962,285.91,337.962z"/>
<path style="fill:#FFFFFF;" d="M220.73,227.196c0-15.765-12.783-28.547-28.544-28.547c-15.763,0-28.544,12.781-28.544,28.547
	c0,15.761,12.781,28.542,28.544,28.542C207.948,255.737,220.73,242.957,220.73,227.196z"/>
<path style="fill:#7F56C5;" d="M200.432,227.196c0-4.559-3.693-8.247-8.246-8.247c-4.551,0-8.244,3.688-8.244,8.247
	c0,4.552,3.692,8.243,8.244,8.243C196.739,235.439,200.432,231.745,200.432,227.196z"/>
<path style="fill:#FFFFFF;" d="M291.27,227.196c0-15.765,12.783-28.547,28.544-28.547c15.763,0,28.544,12.781,28.544,28.547
	c0,15.761-12.781,28.542-28.544,28.542C304.053,255.737,291.27,242.957,291.27,227.196z"/>
<path style="fill:#7F56C5;" d="M311.568,227.196c0-4.559,3.693-8.247,8.246-8.247c4.551,0,8.244,3.688,8.244,8.247
	c0,4.552-3.692,8.243-8.244,8.243C315.262,235.439,311.568,231.745,311.568,227.196z"/>
<path style="fill:#6CC04A;" d="M256.001,323.925c-12.956,0-23.462-10.503-23.462-23.459v-26.874
	c0-12.96,10.506-23.459,23.462-23.459c12.955,0,23.461,10.499,23.461,23.459v26.874
	C279.462,313.423,268.955,323.925,256.001,323.925z"/>
<path style="opacity:0.1;enable-background:new    ;" d="M256.001,323.925c-12.956,0-23.462-10.503-23.462-23.459v-26.874
	c0-12.96,10.506-23.459,23.462-23.459c12.955,0,23.461,10.499,23.461,23.459v26.874
	C279.462,313.423,268.955,323.925,256.001,323.925z"/>
<path style="fill:#6CC04A;" d="M264.217,297.145c0-4.559-3.693-8.247-8.246-8.247c-4.551,0-8.244,3.689-8.244,8.247
	c0,4.552,3.692,8.243,8.244,8.243C260.523,305.388,264.217,301.695,264.217,297.145z"/>
<path style="fill:#333E48;" d="M125.984,192.282c-8.86,0-11.716-5.766-6.348-12.814L246.239,13.236
	c5.37-7.049,14.154-7.049,19.524,0l126.603,166.232c5.368,7.047,2.512,12.814-6.348,12.814H125.984z"/>
<path style="fill:#7F56C5;" d="M392.365,179.468l-38.626-50.719H158.263l-38.627,50.719c-5.367,7.047-2.512,12.814,6.348,12.814
	h260.034C394.877,192.282,397.733,186.517,392.365,179.468z"/>
<path style="fill:#333E48;" d="M392.938,209.546c9.534,0,17.262-7.728,17.262-17.264c0-9.534-7.728-17.264-17.262-17.264H119.062
	c-9.534,0-17.263,7.73-17.263,17.264c0,9.536,7.729,17.264,17.263,17.264H392.938z"/>
<path style="fill:#1E252B;" d="M329.575,297.215c-1.959-2.143-5.673-4.698-12.253-4.698H287.41v-18.925
	c0-17.319-14.09-31.408-31.41-31.408s-31.411,14.089-31.411,31.408v18.925h-29.92c-6.584,0-10.3,2.559-12.259,4.704
	c-2.501,2.742-3.683,6.399-3.326,10.284c1.731,19.117,10.497,36.822,24.687,49.854c14.279,13.114,32.826,20.338,52.224,20.338
	s37.946-7.223,52.225-20.338c14.189-13.032,22.957-30.736,24.687-49.854C333.261,303.608,332.077,299.953,329.575,297.215z
	 M240.488,273.592c0-8.551,6.958-15.51,15.513-15.51c8.552,0,15.512,6.957,15.512,15.51v26.874c0,8.551-6.959,15.51-15.512,15.51
	c-8.553,0-15.513-6.958-15.513-15.51L240.488,273.592L240.488,273.592z M297.467,345.65c-11.338,10.414-26.066,16.148-41.471,16.148
	s-30.133-5.734-41.47-16.148c-10.687-9.815-17.501-22.958-19.35-37.235h30.434c3.529,13.482,15.816,23.459,30.39,23.459
	s26.859-9.977,30.389-23.459h30.428C314.97,322.686,308.155,335.836,297.467,345.65z M431.415,450.372
	c0-22.244-12.353-41.651-30.556-51.741V286.596c7.167-7.437,11.588-17.536,11.588-28.655c0-11.118-4.421-21.219-11.588-28.656
	v-13.072c10.032-3.33,17.291-12.795,17.291-23.932c0-13.903-11.309-25.213-25.211-25.213h-0.023L272.086,8.419
	C268.01,3.068,262.147,0,256.001,0c-6.146,0-12.01,3.068-16.086,8.42l-120.83,158.649h-0.022c-13.902,0-25.212,11.31-25.212,25.213
	c0,11.136,7.26,20.603,17.291,23.932v13.064c-7.17,7.438-11.593,17.54-11.593,28.663c0,11.122,4.424,21.224,11.593,28.661v112.026
	c-18.204,10.089-30.558,29.496-30.558,51.742v53.679c0,4.391,3.558,7.949,7.949,7.949h334.934c2.108,0,4.129-0.837,5.622-2.329
	c1.49-1.49,2.328-3.513,2.328-5.621L431.415,450.372z M252.562,18.053c1.059-1.391,2.28-2.155,3.438-2.155s2.379,0.765,3.437,2.154
	L372.93,167.069H139.069L252.562,18.053z M109.749,192.282c0-5.136,4.177-9.314,9.313-9.314h273.875
	c5.135,0,9.312,4.178,9.312,9.314c0,5.136-4.177,9.314-9.312,9.314H119.062C113.927,201.597,109.749,197.419,109.749,192.282z
	 M255.997,393.646c-59.09,0-107.164-48.074-107.164-107.165v-57.078c0-3.979,0.244-7.961,0.679-11.906h7.481
	c-0.856,3.121-1.301,6.372-1.301,9.699c0,20.121,16.37,36.492,36.494,36.492c20.122,0,36.494-16.369,36.494-36.492
	c0-3.329-0.444-6.579-1.301-9.699h57.241c-0.856,3.12-1.301,6.371-1.301,9.699c0,20.121,16.37,36.492,36.494,36.492
	c20.122,0,36.494-16.369,36.494-36.492c0-3.328-0.444-6.578-1.301-9.699h7.474c0.436,3.945,0.679,7.925,0.679,11.906v57.078
	C363.161,345.572,315.087,393.646,255.997,393.646z M296.601,402.652c-1.759,20.863-19.291,37.306-40.603,37.306
	c-21.311,0-38.843-16.443-40.603-37.305c12.718,4.458,26.38,6.89,40.601,6.89C270.22,409.545,283.883,407.111,296.601,402.652z
	 M132.934,233.783v48.316c-10.143-3.346-17.487-12.908-17.487-24.157S122.791,237.13,132.934,233.783z M127.041,218.999v-1.503
	h5.314C130.537,217.878,128.764,218.384,127.041,218.999z M127.041,296.885c2.092,0.745,4.262,1.322,6.492,1.724
	c3.846,39.14,26.107,72.951,57.976,92.64h-51.806c-4.347,0-8.58,0.485-12.662,1.38V296.885z M171.591,227.196
	c0-3.444,0.834-6.738,2.424-9.699h36.342c1.59,2.96,2.423,6.256,2.423,9.699c0,11.355-9.239,20.593-20.595,20.593
	C180.831,247.788,171.591,238.55,171.591,227.196z M299.219,227.196c0-3.444,0.833-6.739,2.423-9.699h36.342
	c1.59,2.961,2.424,6.256,2.424,9.699c0,11.355-9.239,20.593-20.595,20.593C308.459,247.788,299.219,238.55,299.219,227.196z
	 M378.461,298.609c2.232-0.404,4.405-0.98,6.498-1.727v95.748c-4.084-0.896-8.318-1.381-12.665-1.381h-51.809
	C352.355,371.562,374.615,337.75,378.461,298.609z M379.059,282.099v-48.316c10.143,3.347,17.487,12.909,17.487,24.159
	C396.547,269.193,389.204,278.753,379.059,282.099z M379.639,217.496h5.321v1.505C383.235,218.385,381.46,217.878,379.639,217.496z
	 M415.518,496.101H96.483v-45.73c0-23.832,19.389-43.222,43.22-43.222h60.207c3.878,27.49,27.546,48.708,56.089,48.708
	s52.21-21.219,56.088-48.708h60.207c23.831,0,43.221,19.39,43.223,43.222L415.518,496.101L415.518,496.101z"/>
<g>
</g>
<g>
</g>
<g>
</g>
<g>
</g>
<g>
</g>
<g>
</g>
<g>
</g>
<g>
</g>
<g>
</g>
<g>
</g>
<g>
</g>
<g>
</g>
<g>
</g>
<g>
</g>
<g>
</g>
</svg>
